<?xml version="1.0" encoding="utf-8"?>
<!-- Generator: Adobe Illustrator 17.0.0, SVG Export Plug-In . SVG Version: 6.00 Build 0)  -->
<!DOCTYPE svg PUBLIC "-//W3C//DTD SVG 1.1//EN" "http://www.w3.org/Graphics/SVG/1.1/DTD/svg11.dtd">
<svg version="1.1" id="logo" xmlns="http://www.w3.org/2000/svg" xmlns:xlink="http://www.w3.org/1999/xlink" x="0px" y="0px"
	 width="144px" height="48px" viewBox="0 0 144 48" style="enable-background:new 0 0 144 48;" xml:space="preserve">
<path id="lo" style="fill:#1D1D1B;" d="M128,36c-5.7,0-10.3-4.6-10.3-10.3c0-5.7,4.6-10.3,10.3-10.3c5.7,0,10.3,4.6,10.3,10.3
	C138.3,31.4,133.7,36,128,36z M128,20.5c-2.9,0-5.2,2.3-5.2,5.2c0,2.9,2.3,5.2,5.2,5.2s5.2-2.3,5.2-5.2
	C133.2,22.9,130.8,20.5,128,20.5z"/>
<path id="la" style="fill:#1D1D1B;" d="M55,36v-1.3l-1.1,0.5c-1.3,0.6-2.6,0.8-4.1,0.8c-5.7,0-10.3-4.6-10.3-10.3
	c0-5.7,4.6-10.3,10.3-10.3c2,0,3.9,0.6,5.5,1.6l0.2,0.1h4.5V36H55z M49.9,20.5c-2.9,0-5.2,2.3-5.2,5.2c0,2.9,2.3,5.2,5.2,5.2
	c2.9,0,5.2-2.3,5.2-5.2C55,22.9,52.7,20.5,49.9,20.5z"/>
<path id="lr" style="fill:#1D1D1B;" d="M78.1,36l-6.8-10.9h-1.7V36h-5.1V14.7l-2.3-4.4h4.5l0.2-0.3c1.8-2,4.3-3.1,6.9-3.1
	c5.2,0,9.4,4.2,9.4,9.4c0,3.6-2.1,6.9-5.4,8.5l-0.8,0.4L83.7,36H78.1z M73.9,12.1c-2.3,0-4.3,1.9-4.3,4.3c0,2.3,1.9,4.3,4.3,4.3
	c2.3,0,4.3-1.9,4.3-4.3C78.2,14,76.3,12.1,73.9,12.1z"/>
<polygon id="lm" style="fill:#1D1D1B;" points="30.2,36 30.2,15.1 21.7,28.5 13.1,15.1 13.1,36 8,36 8,7.1 5.7,3.5 11.8,3.5 
	21.7,19 31.5,3.5 37.6,3.5 35.3,7.1 35.3,36 "/>
<path id="lk" style="fill:#1D1D1B;" d="M109.6,20.8l6.7-10.5h-6.1l-6.2,9.7h-2.6V3.5h-5.1V36h5.1V25.2h5.1c2,0.4,3.4,2.1,3.4,4.2V36
	h5.1v-6.7C115,25.7,112.9,22.4,109.6,20.8z"/>
<rect id="libody" x="86.9" y="17.2" style="fill:#1D1D1B;" width="5.1" height="18.8"/>
<path id="lihead" style="fill:#1D1D1B;" d="M89.5,14.1c-2,0-3.6-1.6-3.6-3.6S87.5,7,89.5,7c2,0,3.6,1.6,3.6,3.6S91.4,14.1,89.5,14.1
	z"/>
<g>
</g>
<g>
</g>
<g>
</g>
<g>
</g>
<g>
</g>
<g>
</g>
<g>
</g>
<g>
</g>
<g>
</g>
<g>
</g>
<g>
</g>
<g>
</g>
<g>
</g>
<g>
</g>
<g>
</g>
</svg>
